<svg xmlns="http://www.w3.org/2000/svg" viewBox="0 0 200 50">
  <g id="Type">
    <path d="M80.1 23.4h4.7V33c-2.6 2.9-6.4 4.4-11.3 4.4-4.1 0-7.6-1.4-10.4-4.1S59 27.1 59 22.9s1.4-7.6 4.3-10.4c2.8-2.8 6.3-4.2 10.3-4.2 4 0 7.4 1.2 10 3.5L81 15.5c-1.1-.9-2.2-1.6-3.3-1.9-1.1-.4-2.4-.5-3.9-.5-2.8 0-5.2.9-7.1 2.7S63.8 20 63.8 23s.9 5.4 2.8 7.2c1.9 1.8 4.1 2.7 6.8 2.7s4.9-.6 6.7-1.7v-7.8zM107.6 37h-4.1v-2.8c-1.8 2.1-4.1 3.2-7.1 3.2-2.2 0-4-.6-5.5-1.9-1.5-1.3-2.2-2.9-2.2-5s.8-3.7 2.3-4.7c1.5-1 3.6-1.6 6.3-1.6h5.8v-.8c0-2.8-1.6-4.2-4.7-4.2-2 0-4 .7-6.2 2.2l-2-2.8c2.6-2.1 5.5-3.1 8.8-3.1 2.5 0 4.6.6 6.1 1.9 1.6 1.3 2.4 3.3 2.4 6V37zm-4.4-7.9v-1.8h-5c-3.2 0-4.8 1-4.8 3 0 1 .4 1.8 1.2 2.4.8.5 1.9.8 3.3.8s2.7-.4 3.7-1.2c1-.8 1.6-1.9 1.6-3.2zM118.4 37h-4.5V7.3h4.5V37zM129.3 37h-4.5V7.3h4.5V37zM155.6 28.3h-16.7c.1 1.5.8 2.8 2.1 3.7 1.3.9 2.8 1.4 4.5 1.4 2.7 0 4.7-.8 6.1-2.5l2.6 2.8c-2.3 2.4-5.3 3.6-9 3.6-3 0-5.5-1-7.6-3-2.1-2-3.1-4.7-3.1-8s1.1-6 3.2-8 4.6-3 7.5-3 5.4.9 7.4 2.6c2 1.7 3 4.2 3 7.2v3.2zm-16.7-3.5h12.2c0-1.8-.6-3.2-1.7-4.1s-2.5-1.4-4.1-1.4-3.1.5-4.4 1.5-2 2.3-2 4zM171.7 19.9c-2.2 0-3.9.7-5 2.2s-1.7 3.4-1.7 5.8V37h-4.5V15.7h4.5V20c.7-1.3 1.7-2.4 2.9-3.3s2.6-1.3 3.9-1.3v4.5h-.1zM179.1 45.5c-1.9 0-3.7-.7-5.3-2.1l2-3.6c.9.9 1.9 1.3 2.9 1.3s1.8-.4 2.4-1.1c.6-.7.9-1.5.9-2.4 0-.4-2.9-7.7-8.6-21.9h4.8l6.4 15.7 6.4-15.7h4.8L185.5 41c-.6 1.4-1.5 2.5-2.6 3.3s-2.4 1.2-3.8 1.2z"/>
  </g>
  <g id="Logo">
    <path d="M46.5 9.5v5h-13v-5h13M51 5H29v14h22V5z" id="Rect_Bottom"/>
    <path d="M20.5 15.5v21h-10v-21h10M25 11H6v30h19V11z" id="Rect_Top"/>
    <path d="M46.5 27.5v13h-13v-13h13M51 23H29v22h22V23z" id="Rect_Left"/>
  </g>
</svg>
